<svg width="51" height="17" viewBox="0 0 51 17" fill="none" xmlns="http://www.w3.org/2000/svg">
<path d="M41.8711 5.70801L44.1592 5.41797L44.5352 7.05078L46.4258 5.41797H49.0684C49.2044 5.41797 49.3942 5.52181 49.6377 5.72949C50.0459 6.06608 50.25 6.36686 50.25 6.63184L49.874 15.999L47.4785 16.1924L47.4355 7.89941C47.3496 7.87077 47.2314 7.85645 47.0811 7.85645C46.9307 7.85645 46.791 7.86361 46.6621 7.87793C46.5404 7.89225 46.4079 7.91374 46.2646 7.94238C45.9281 7.99967 45.6523 8.06771 45.4375 8.14648L44.6426 8.43652L44.3525 15.8916L42.0644 16.0635L41.8711 5.70801Z" fill="white"/>
<path d="M31.4834 8.82324C31.4834 7.86361 31.5837 7.30859 31.7842 7.1582C31.9847 7.00781 32.2103 6.85742 32.4609 6.70703C32.7116 6.54948 32.9873 6.39551 33.2881 6.24512C33.5889 6.09473 33.9004 5.9515 34.2227 5.81543C34.5521 5.67936 34.8743 5.55762 35.1894 5.4502C35.8626 5.22103 36.3639 5.10645 36.6934 5.10645C37.0299 5.10645 37.3021 5.12435 37.5098 5.16016C37.7174 5.1888 37.9072 5.23893 38.0791 5.31055C38.473 5.47526 38.695 5.71517 38.7451 6.03027C38.9814 7.52702 39.0996 9.31022 39.0996 11.3799V12.0137L33.9541 12.0781V13.4746C34.5127 13.6107 35.1787 13.736 35.9521 13.8506L37.7998 14.1514C38.2725 14.223 38.7559 14.3053 39.25 14.3984L38.6162 16.751C36.6468 16.443 34.5557 15.9453 32.3428 15.2578C31.8343 15.0931 31.5729 14.7959 31.5586 14.3662L31.4834 8.82324ZM36.6826 9.7041C36.6826 9.03092 36.6146 8.32194 36.4785 7.57715C36.1921 7.57715 35.9629 7.59147 35.791 7.62012C35.6191 7.64876 35.4473 7.68815 35.2754 7.73828C35.1035 7.78841 34.9281 7.8457 34.749 7.91016C34.3265 8.06055 34.0472 8.18945 33.9111 8.29688V10.2305L36.6826 9.92969V9.7041Z" fill="white"/>
<path d="M21.2998 8.82324C21.2998 7.86361 21.4001 7.30859 21.6006 7.1582C21.8011 7.00781 22.0267 6.85742 22.2773 6.70703C22.528 6.54948 22.8037 6.39551 23.1045 6.24512C23.4053 6.09473 23.7168 5.9515 24.0391 5.81543C24.3685 5.67936 24.6908 5.55762 25.0059 5.4502C25.679 5.22103 26.1803 5.10645 26.5098 5.10645C26.8464 5.10645 27.1185 5.12435 27.3262 5.16016C27.5339 5.1888 27.7236 5.23893 27.8955 5.31055C28.2894 5.47526 28.5114 5.71517 28.5615 6.03027C28.7978 7.52702 28.916 9.31022 28.916 11.3799V12.0137L23.7705 12.0781V13.4746C24.3291 13.6107 24.9951 13.736 25.7686 13.8506L27.6162 14.1514C28.0889 14.223 28.5723 14.3053 29.0664 14.3984L28.4326 16.751C26.4632 16.443 24.3721 15.9453 22.1592 15.2578C21.6507 15.0931 21.3893 14.7959 21.375 14.3662L21.2998 8.82324ZM26.499 9.7041C26.499 9.03092 26.431 8.32194 26.2949 7.57715C26.0085 7.57715 25.7793 7.59147 25.6074 7.62012C25.4355 7.64876 25.2637 7.68815 25.0918 7.73828C24.9199 7.78841 24.7445 7.8457 24.5654 7.91016C24.1429 8.06055 23.8636 8.18945 23.7275 8.29688V10.2305L26.499 9.92969V9.7041Z" fill="white"/>
<path d="M15.9824 10.0156C15.9824 8.99154 15.9395 8.24316 15.8535 7.77051H15.1016C14.6719 7.77051 14.3389 7.81348 14.1025 7.89941C13.723 8.02832 13.4186 8.14648 13.1895 8.25391L13.0283 15.8486L10.6973 15.9775C10.6758 13.2204 10.6364 11.1364 10.5791 9.72559C10.4932 7.8278 10.4502 6.18783 10.4502 4.80566C10.4502 3.87467 10.4681 2.49609 10.5039 0.669922L13.0713 0.132812L13.1895 6.93262L14.8975 5.41797H17.2822C17.5472 5.41797 17.7907 5.51823 18.0127 5.71875C18.4066 6.08398 18.6107 6.40625 18.625 6.68555C18.6393 6.96484 18.6465 7.24772 18.6465 7.53418V8.37207C18.6465 9.33171 18.6322 10.0192 18.6035 10.4346L18.2705 16.3535L15.8857 16.751L15.9824 10.0156Z" fill="white"/>
<path d="M0.416992 13.7754C2.5153 13.6178 4.12305 13.3779 5.24023 13.0557C5.29036 12.7262 5.31543 12.3538 5.31543 11.9385C5.31543 11.516 5.30469 11.1257 5.2832 10.7676L1.46973 9.38184C1.21191 9.28874 1.01855 9.12044 0.889648 8.87695C0.760742 8.6263 0.664062 8.30046 0.599609 7.89941C0.45638 7.01855 0.384766 6.34538 0.384766 5.87988C0.384766 5.14225 0.402669 4.60872 0.438477 4.2793C0.495768 3.69206 0.871745 3.2946 1.56641 3.08691C3.19206 2.49967 5.10417 2.01628 7.30273 1.63672L7.95801 4.22559L6.58301 4.41895C5.22233 4.61947 4.09082 4.83431 3.18848 5.06348C3.15983 5.24967 3.14551 5.49316 3.14551 5.79395C3.14551 6.40983 3.15983 6.89323 3.18848 7.24414L7.15234 8.98438C7.58919 9.17057 7.88281 9.49642 8.0332 9.96191C8.07617 10.098 8.09766 10.1947 8.09766 10.252C8.09766 10.3092 8.09049 10.4346 8.07617 10.6279C8.06901 10.8141 8.05469 11.0648 8.0332 11.3799C7.97591 12.2249 7.9043 12.9518 7.81836 13.5605C7.73242 14.1621 7.52116 14.5739 7.18457 14.7959C6.85514 15.0107 6.45052 15.2041 5.9707 15.376C5.49805 15.5407 4.986 15.6911 4.43457 15.8271C3.53939 16.0348 2.35417 16.2461 0.878906 16.4609L0.416992 13.7754Z" fill="white"/>
</svg>
