<svg width="20" height="21" viewBox="0 0 20 21" fill="none" xmlns="http://www.w3.org/2000/svg">
<path d="M8.99167 13.8582C9.31667 14.1832 9.84167 14.1832 10.1667 13.8582L13.1583 10.8665C13.4833 10.5415 13.4833 10.0165 13.1583 9.69154L10.1667 6.69987C9.84167 6.37487 9.31667 6.37487 8.99167 6.69987C8.66667 7.02487 8.66667 7.54987 8.99167 7.87487L10.5583 9.44987H3.33333C2.875 9.44987 2.5 9.82487 2.5 10.2832C2.5 10.7415 2.875 11.1165 3.33333 11.1165H10.5583L8.99167 12.6832C8.66667 13.0082 8.675 13.5415 8.99167 13.8582ZM15.8333 2.7832H4.16667C3.24167 2.7832 2.5 3.5332 2.5 4.44987V6.94987C2.5 7.4082 2.875 7.7832 3.33333 7.7832C3.79167 7.7832 4.16667 7.4082 4.16667 6.94987V5.2832C4.16667 4.82487 4.54167 4.44987 5 4.44987H15C15.4583 4.44987 15.8333 4.82487 15.8333 5.2832V15.2832C15.8333 15.7415 15.4583 16.1165 15 16.1165H5C4.54167 16.1165 4.16667 15.7415 4.16667 15.2832V13.6165C4.16667 13.1582 3.79167 12.7832 3.33333 12.7832C2.875 12.7832 2.5 13.1582 2.5 13.6165V16.1165C2.5 17.0332 3.25 17.7832 4.16667 17.7832H15.8333C16.75 17.7832 17.5 17.0332 17.5 16.1165V4.44987C17.5 3.5332 16.75 2.7832 15.8333 2.7832Z" fill="#00687A"/>
</svg>
