<svg width="25" height="25" viewBox="0 0 25 25" fill="none" xmlns="http://www.w3.org/2000/svg">
<path d="M11.8936 7.39453H13.8936V9.39453H11.8936V7.39453ZM11.8936 11.3945H13.8936V17.3945H11.8936V11.3945ZM12.8936 2.39453C7.37355 2.39453 2.89355 6.87453 2.89355 12.3945C2.89355 17.9145 7.37355 22.3945 12.8936 22.3945C18.4136 22.3945 22.8936 17.9145 22.8936 12.3945C22.8936 6.87453 18.4136 2.39453 12.8936 2.39453ZM12.8936 20.3945C8.48355 20.3945 4.89355 16.8045 4.89355 12.3945C4.89355 7.98453 8.48355 4.39453 12.8936 4.39453C17.3036 4.39453 20.8936 7.98453 20.8936 12.3945C20.8936 16.8045 17.3036 20.3945 12.8936 20.3945Z" fill="#00687A"/>
</svg>
