<svg width="21" height="20" viewBox="0 0 21 20" fill="none" xmlns="http://www.w3.org/2000/svg">
<path d="M10.625 7.5H13.9583C14.4167 7.5 14.7917 7.125 14.7917 6.66667C14.7917 6.20833 14.4167 5.83333 13.9583 5.83333H10.625C10.1667 5.83333 9.79167 6.20833 9.79167 6.66667C9.79167 7.125 10.1667 7.5 10.625 7.5ZM10.625 10.8333H13.9583C14.4167 10.8333 14.7917 10.4583 14.7917 10C14.7917 9.54167 14.4167 9.16667 13.9583 9.16667H10.625C10.1667 9.16667 9.79167 9.54167 9.79167 10C9.79167 10.4583 10.1667 10.8333 10.625 10.8333ZM10.625 14.1667H13.9583C14.4167 14.1667 14.7917 13.7917 14.7917 13.3333C14.7917 12.875 14.4167 12.5 13.9583 12.5H10.625C10.1667 12.5 9.79167 12.875 9.79167 13.3333C9.79167 13.7917 10.1667 14.1667 10.625 14.1667ZM6.45833 5.83333H8.125V7.5H6.45833V5.83333ZM6.45833 9.16667H8.125V10.8333H6.45833V9.16667ZM6.45833 12.5H8.125V14.1667H6.45833V12.5ZM17.2917 2.5H3.95833C3.5 2.5 3.125 2.875 3.125 3.33333V16.6667C3.125 17.125 3.5 17.5 3.95833 17.5H17.2917C17.75 17.5 18.125 17.125 18.125 16.6667V3.33333C18.125 2.875 17.75 2.5 17.2917 2.5ZM16.4583 15.8333H4.79167V4.16667H16.4583V15.8333Z" fill="#464744"/>
</svg>
