<svg width="19" height="19" viewBox="0 0 19 19" fill="none" xmlns="http://www.w3.org/2000/svg">
<path d="M9.89355 6.39453H13.8936C14.4436 6.39453 14.8936 5.94453 14.8936 5.39453C14.8936 4.84453 14.4436 4.39453 13.8936 4.39453H9.89355C9.34355 4.39453 8.89355 4.84453 8.89355 5.39453C8.89355 5.94453 9.34355 6.39453 9.89355 6.39453ZM9.89355 10.3945H13.8936C14.4436 10.3945 14.8936 9.94453 14.8936 9.39453C14.8936 8.84453 14.4436 8.39453 13.8936 8.39453H9.89355C9.34355 8.39453 8.89355 8.84453 8.89355 9.39453C8.89355 9.94453 9.34355 10.3945 9.89355 10.3945ZM9.89355 14.3945H13.8936C14.4436 14.3945 14.8936 13.9445 14.8936 13.3945C14.8936 12.8445 14.4436 12.3945 13.8936 12.3945H9.89355C9.34355 12.3945 8.89355 12.8445 8.89355 13.3945C8.89355 13.9445 9.34355 14.3945 9.89355 14.3945ZM4.89355 4.39453H6.89355V6.39453H4.89355V4.39453ZM4.89355 8.39453H6.89355V10.3945H4.89355V8.39453ZM4.89355 12.3945H6.89355V14.3945H4.89355V12.3945ZM17.8936 0.394531H1.89355C1.34355 0.394531 0.893555 0.844531 0.893555 1.39453V17.3945C0.893555 17.9445 1.34355 18.3945 1.89355 18.3945H17.8936C18.4436 18.3945 18.8936 17.9445 18.8936 17.3945V1.39453C18.8936 0.844531 18.4436 0.394531 17.8936 0.394531ZM16.8936 16.3945H2.89355V2.39453H16.8936V16.3945Z" fill="#00687A"/>
</svg>
