<svg width="25" height="25" viewBox="0 0 25 25" fill="none" xmlns="http://www.w3.org/2000/svg">
<path d="M12.8936 2.39453C9.02355 2.39453 5.89355 5.52453 5.89355 9.39453C5.89355 14.6445 12.8936 22.3945 12.8936 22.3945C12.8936 22.3945 19.8936 14.6445 19.8936 9.39453C19.8936 5.52453 16.7636 2.39453 12.8936 2.39453ZM7.89355 9.39453C7.89355 6.63453 10.1336 4.39453 12.8936 4.39453C15.6536 4.39453 17.8936 6.63453 17.8936 9.39453C17.8936 12.2745 15.0136 16.5845 12.8936 19.2745C10.8136 16.6045 7.89355 12.2445 7.89355 9.39453Z" fill="#00687A"/>
<path d="M12.8936 11.8945C14.2743 11.8945 15.3936 10.7752 15.3936 9.39453C15.3936 8.01382 14.2743 6.89453 12.8936 6.89453C11.5128 6.89453 10.3936 8.01382 10.3936 9.39453C10.3936 10.7752 11.5128 11.8945 12.8936 11.8945Z" fill="#00687A"/>
</svg>
