<svg width="228" height="62" viewBox="0 0 228 62" fill="none" xmlns="http://www.w3.org/2000/svg">
<path d="M139.807 21.7684L143.414 21.1391L144.006 24.6818L146.987 21.1391H151.152C151.367 21.1391 151.666 21.3644 152.05 21.815C152.693 22.5453 153.015 23.1979 153.015 23.7728L152.423 44.0969L148.646 44.5164L148.579 26.5231C148.443 26.4609 148.257 26.4299 148.02 26.4299C147.783 26.4299 147.562 26.4454 147.359 26.4765C147.167 26.5076 146.959 26.5542 146.733 26.6163C146.202 26.7406 145.768 26.8883 145.429 27.0592L144.176 27.6885L143.719 43.8638L140.112 44.2367L139.807 21.7684Z" fill="#00687A"/>
<path d="M123.432 28.5275C123.432 26.4454 123.59 25.2412 123.906 24.9149C124.222 24.5886 124.578 24.2623 124.973 23.936C125.368 23.5941 125.802 23.2601 126.277 22.9338C126.751 22.6075 127.242 22.2967 127.75 22.0015C128.269 21.7062 128.777 21.4421 129.274 21.209C130.335 20.7118 131.125 20.4632 131.645 20.4632C132.175 20.4632 132.604 20.502 132.932 20.5797C133.259 20.6419 133.558 20.7506 133.829 20.906C134.45 21.2634 134.8 21.7839 134.879 22.4676C135.252 25.7151 135.438 29.5841 135.438 34.0747V35.4498L127.327 35.5897V38.6196C128.207 38.9149 129.257 39.1868 130.476 39.4354L133.389 40.088C134.134 40.2434 134.896 40.4221 135.675 40.6241L134.676 45.7284C131.571 45.0602 128.275 43.9803 124.786 42.4886C123.985 42.1313 123.573 41.4864 123.55 40.5541L123.432 28.5275ZM131.628 30.4387C131.628 28.9781 131.52 27.4399 131.306 25.8239C130.854 25.8239 130.493 25.855 130.222 25.9171C129.951 25.9793 129.68 26.0647 129.409 26.1735C129.138 26.2823 128.862 26.4066 128.58 26.5464C127.914 26.8727 127.473 27.1524 127.259 27.3855V31.5808L131.628 30.9282V30.4387Z" fill="#00687A"/>
<path d="M107.378 28.5275C107.378 26.4454 107.536 25.2412 107.853 24.9149C108.169 24.5886 108.524 24.2623 108.919 23.936C109.315 23.5941 109.749 23.2601 110.223 22.9338C110.697 22.6075 111.189 22.2967 111.697 22.0015C112.216 21.7062 112.724 21.4421 113.221 21.209C114.282 20.7118 115.072 20.4632 115.591 20.4632C116.122 20.4632 116.551 20.502 116.878 20.5797C117.206 20.6419 117.505 20.7506 117.776 20.906C118.397 21.2634 118.747 21.7839 118.826 22.4676C119.198 25.7151 119.385 29.5841 119.385 34.0747V35.4498L111.273 35.5897V38.6196C112.154 38.9149 113.204 39.1868 114.423 39.4354L117.336 40.088C118.081 40.2434 118.843 40.4221 119.622 40.6241L118.623 45.7284C115.518 45.0602 112.222 43.9803 108.733 42.4886C107.932 42.1313 107.52 41.4864 107.497 40.5541L107.378 28.5275ZM115.574 30.4387C115.574 28.9781 115.467 27.4399 115.253 25.8239C114.801 25.8239 114.44 25.855 114.169 25.9171C113.898 25.9793 113.627 26.0647 113.356 26.1735C113.085 26.2823 112.809 26.4066 112.526 26.5464C111.86 26.8727 111.42 27.1524 111.205 27.3855V31.5808L115.574 30.9282V30.4387Z" fill="#00687A"/>
<path d="M98.9962 31.1147C98.9962 28.8927 98.9284 27.2689 98.793 26.2434H97.6076C96.9302 26.2434 96.4053 26.3366 96.0327 26.5231C95.4344 26.8028 94.9546 27.0592 94.5934 27.2922L94.3394 43.7706L90.6647 44.0502C90.6308 38.068 90.5688 33.5464 90.4784 30.4854C90.343 26.3677 90.2752 22.8095 90.2752 19.8106C90.2752 17.7906 90.3035 14.7995 90.3599 10.8372L94.4071 9.67188L94.5934 24.4254L97.2859 21.1391H101.045C101.463 21.1391 101.847 21.3566 102.197 21.7917C102.818 22.5842 103.139 23.2834 103.162 23.8894C103.184 24.4954 103.196 25.1091 103.196 25.7306V27.5486C103.196 29.6308 103.173 31.1224 103.128 32.0236L102.603 44.866L98.8438 45.7284L98.9962 31.1147Z" fill="#00687A"/>
<path d="M74.459 39.2722C77.7668 38.9304 80.3012 38.4099 82.0623 37.7106C82.1413 36.9959 82.1808 36.1879 82.1808 35.2867C82.1808 34.3699 82.1639 33.5231 82.13 32.7462L76.1185 29.7395C75.7121 29.5375 75.4073 29.1724 75.2041 28.6441C75.0009 28.1002 74.8485 27.3932 74.7469 26.5231C74.5211 24.6119 74.4082 23.1513 74.4082 22.1413C74.4082 20.5409 74.4364 19.3833 74.4929 18.6685C74.5832 17.3944 75.1759 16.532 76.2709 16.0814C78.8336 14.8073 81.8478 13.7584 85.3136 12.9349L86.3466 18.552L84.179 18.9715C82.0341 19.4066 80.2504 19.8727 78.8279 20.37C78.7828 20.774 78.7602 21.3023 78.7602 21.9549C78.7602 23.2911 78.7828 24.34 78.8279 25.1014L85.0765 28.8771C85.7652 29.2811 86.228 29.9881 86.4651 30.9981C86.5329 31.2933 86.5667 31.5031 86.5667 31.6274C86.5667 31.7517 86.5554 32.0236 86.5329 32.4432C86.5216 32.8472 86.499 33.391 86.4651 34.0747C86.3748 35.9082 86.2619 37.4853 86.1264 38.8061C85.991 40.1113 85.6579 41.0047 85.1273 41.4864C84.608 41.9526 83.9702 42.3721 83.2138 42.745C82.4687 43.1024 81.6615 43.4287 80.7923 43.7239C79.3811 44.1745 77.5127 44.6329 75.1872 45.0991L74.459 39.2722Z" fill="#00687A"/>
</svg>
