<svg width="80" height="37" viewBox="0 0 80 37" fill="none" xmlns="http://www.w3.org/2000/svg">
<path d="M65.8068 12.7684L69.4137 12.1391L70.0064 15.6818L72.9867 12.1391H77.1525C77.367 12.1391 77.6661 12.3644 78.05 12.815C78.6935 13.5453 79.0152 14.1979 79.0152 14.7728L78.4225 35.0969L74.6463 35.5164L74.5785 17.5231C74.4431 17.4609 74.2568 17.4299 74.0197 17.4299C73.7826 17.4299 73.5625 17.4454 73.3593 17.4765C73.1674 17.5076 72.9585 17.5542 72.7327 17.6163C72.2021 17.7406 71.7675 17.8882 71.4288 18.0592L70.1757 18.6885L69.7185 34.8638L66.1116 35.2367L65.8068 12.7684Z" fill="white"/>
<path d="M49.4317 19.5275C49.4317 17.4454 49.5898 16.2412 49.9059 15.9149C50.222 15.5886 50.5776 15.2623 50.9727 14.936C51.3678 14.5941 51.8025 14.2601 52.2766 13.9338C52.7508 13.6075 53.2419 13.2967 53.7499 13.0015C54.2692 12.7062 54.7772 12.4421 55.2739 12.209C56.3351 11.7118 57.1254 11.4632 57.6447 11.4632C58.1753 11.4632 58.6042 11.502 58.9316 11.5797C59.259 11.6419 59.5582 11.7506 59.8291 11.906C60.45 12.2634 60.8 12.7839 60.879 13.4676C61.2516 16.7151 61.4378 20.5841 61.4378 25.0747V26.4498L53.3265 26.5897V29.6196C54.2071 29.9149 55.257 30.1868 56.4762 30.4354L59.3888 31.088C60.1339 31.2434 60.896 31.4221 61.6749 31.6241L60.6758 36.7284C57.5713 36.0602 54.2748 34.9803 50.7864 33.4886C49.9849 33.1313 49.5729 32.4864 49.5503 31.5541L49.4317 19.5275ZM57.6277 21.4387C57.6277 19.9781 57.5205 18.4399 57.306 16.8239C56.8544 16.8239 56.4932 16.855 56.2222 16.9171C55.9513 16.9793 55.6803 17.0647 55.4094 17.1735C55.1384 17.2823 54.8619 17.4066 54.5796 17.5464C53.9136 17.8727 53.4733 18.1524 53.2588 18.3855V22.5808L57.6277 21.9282V21.4387Z" fill="white"/>
<path d="M33.3784 19.5275C33.3784 17.4454 33.5365 16.2412 33.8526 15.9149C34.1687 15.5886 34.5243 15.2623 34.9194 14.936C35.3145 14.5941 35.7492 14.2601 36.2233 13.9338C36.6975 13.6075 37.1886 13.2967 37.6966 13.0015C38.2159 12.7062 38.7239 12.4421 39.2206 12.209C40.2818 11.7118 41.0721 11.4632 41.5914 11.4632C42.1219 11.4632 42.5509 11.502 42.8783 11.5797C43.2057 11.6419 43.5049 11.7506 43.7758 11.906C44.3967 12.2634 44.7467 12.7839 44.8257 13.4676C45.1983 16.7151 45.3845 20.5841 45.3845 25.0747V26.4498L37.2732 26.5897V29.6196C38.1538 29.9149 39.2037 30.1868 40.4229 30.4354L43.3355 31.088C44.0806 31.2434 44.8427 31.4221 45.6216 31.6241L44.6225 36.7284C41.518 36.0602 38.2215 34.9803 34.7331 33.4886C33.9316 33.1313 33.5195 32.4864 33.497 31.5541L33.3784 19.5275ZM41.5744 21.4387C41.5744 19.9781 41.4672 18.4399 41.2527 16.8239C40.8011 16.8239 40.4399 16.855 40.1689 16.9171C39.898 16.9793 39.627 17.0647 39.3561 17.1735C39.0851 17.2823 38.8086 17.4066 38.5263 17.5464C37.8603 17.8727 37.42 18.1524 37.2055 18.3855V22.5808L41.5744 21.9282V21.4387Z" fill="white"/>
<path d="M24.9962 22.1147C24.9962 19.8927 24.9284 18.2689 24.793 17.2434H23.6076C22.9302 17.2434 22.4053 17.3366 22.0327 17.5231C21.4344 17.8028 20.9546 18.0592 20.5934 18.2922L20.3394 34.7706L16.6647 35.0502C16.6308 29.068 16.5688 24.5464 16.4784 21.4854C16.343 17.3677 16.2752 13.8095 16.2752 10.8106C16.2752 8.79061 16.3035 5.7995 16.3599 1.83724L20.4071 0.671875L20.5934 15.4254L23.2859 12.1391H27.0452C27.4629 12.1391 27.8467 12.3566 28.1967 12.7917C28.8176 13.5842 29.1393 14.2834 29.1619 14.8894C29.1845 15.4954 29.1958 16.1091 29.1958 16.7307V18.5486C29.1958 20.6308 29.1732 22.1224 29.128 23.0236L28.6031 35.866L24.8438 36.7284L24.9962 22.1147Z" fill="white"/>
<path d="M0.459005 30.2722C3.76675 29.9304 6.30119 29.4099 8.06231 28.7106C8.14133 27.9959 8.18085 27.1879 8.18085 26.2867C8.18085 25.3699 8.16391 24.5231 8.13005 23.7462L2.11852 20.7395C1.71211 20.5375 1.4073 20.1724 1.20409 19.6441C1.00089 19.1002 0.848484 18.3932 0.74688 17.5231C0.521096 15.6119 0.408203 14.1513 0.408203 13.1413C0.408203 11.5409 0.436426 10.3833 0.492872 9.66852C0.583186 8.39438 1.17587 7.53201 2.27093 7.0814C4.83359 5.80726 7.84781 4.75843 11.3136 3.93491L12.3466 9.55198L10.179 9.97151C8.03409 10.4066 6.25039 10.8727 4.82794 11.37C4.78278 11.774 4.76021 12.3023 4.76021 12.9549C4.76021 14.2911 4.78278 15.34 4.82794 16.1014L11.0765 19.8771C11.7652 20.2811 12.228 20.9881 12.4651 21.9981C12.5329 22.2933 12.5667 22.5031 12.5667 22.6274C12.5667 22.7517 12.5554 23.0236 12.5329 23.4432C12.5216 23.8472 12.499 24.391 12.4651 25.0747C12.3748 26.9082 12.2619 28.4853 12.1264 29.8061C11.991 31.1113 11.6579 32.0047 11.1273 32.4864C10.608 32.9526 9.97019 33.3721 9.21381 33.745C8.46872 34.1024 7.66154 34.4287 6.79227 34.7239C5.38111 35.1745 3.51274 35.6329 1.18716 36.0991L0.459005 30.2722Z" fill="white"/>
</svg>
