<svg width="25" height="25" viewBox="0 0 25 25" fill="none" xmlns="http://www.w3.org/2000/svg">
<path d="M22.3036 11.9745L13.3036 2.97453C12.9436 2.61453 12.4436 2.39453 11.8936 2.39453H4.89355C3.79355 2.39453 2.89355 3.29453 2.89355 4.39453V11.3945C2.89355 11.9445 3.11355 12.4445 3.48355 12.8145L12.4836 21.8145C12.8436 22.1745 13.3436 22.3945 13.8936 22.3945C14.4436 22.3945 14.9436 22.1745 15.3036 21.8045L22.3036 14.8045C22.6736 14.4445 22.8936 13.9445 22.8936 13.3945C22.8936 12.8445 22.6636 12.3345 22.3036 11.9745ZM13.8936 20.4045L4.89355 11.3945V4.39453H11.8936V4.38453L20.8936 13.3845L13.8936 20.4045Z" fill="#00687A"/>
<path d="M7.39355 8.39453C8.22198 8.39453 8.89355 7.72296 8.89355 6.89453C8.89355 6.0661 8.22198 5.39453 7.39355 5.39453C6.56513 5.39453 5.89355 6.0661 5.89355 6.89453C5.89355 7.72296 6.56513 8.39453 7.39355 8.39453Z" fill="#00687A"/>
</svg>
