<svg width="24" height="25" viewBox="0 0 24 25" fill="none" xmlns="http://www.w3.org/2000/svg">
<path d="M20 2.2832H4C2.9 2.2832 2 3.1832 2 4.2832V22.2832L6 18.2832H20C21.1 18.2832 22 17.3832 22 16.2832V4.2832C22 3.1832 21.1 2.2832 20 2.2832ZM6 14.2832V11.8132L12.88 4.9332C13.08 4.7332 13.39 4.7332 13.59 4.9332L15.36 6.7032C15.56 6.9032 15.56 7.2132 15.36 7.4132L8.47 14.2832H6ZM17 14.2832H10.5L12.5 12.2832H17C17.55 12.2832 18 12.7332 18 13.2832C18 13.8332 17.55 14.2832 17 14.2832Z" fill="#00687A"/>
</svg>
