<svg width="24" height="25" viewBox="0 0 24 25" fill="none" xmlns="http://www.w3.org/2000/svg">
<path d="M19.5006 12.2832C19.5006 12.0532 19.4906 11.8332 19.4706 11.6032L21.3306 10.1932C21.7306 9.8932 21.8406 9.3332 21.5906 8.8932L19.7206 5.6632C19.4706 5.2232 18.9306 5.0432 18.4706 5.2432L16.3206 6.1532C15.9506 5.8932 15.5606 5.6632 15.1506 5.4732L14.8606 3.1632C14.8006 2.6632 14.3706 2.2832 13.8706 2.2832H10.1406C9.63064 2.2832 9.20064 2.6632 9.14064 3.1632L8.85064 5.4732C8.44064 5.6632 8.05064 5.8932 7.68064 6.1532L5.53064 5.2432C5.07064 5.0432 4.53064 5.2232 4.28064 5.6632L2.41064 8.9032C2.16064 9.3432 2.27064 9.8932 2.67064 10.2032L4.53064 11.6132C4.51064 11.8332 4.50064 12.0532 4.50064 12.2832C4.50064 12.5132 4.51064 12.7332 4.53064 12.9632L2.67064 14.3732C2.27064 14.6732 2.16064 15.2332 2.41064 15.6732L4.28064 18.9032C4.53064 19.3432 5.07064 19.5232 5.53064 19.3232L7.68064 18.4132C8.05064 18.6732 8.44064 18.9032 8.85064 19.0932L9.14064 21.4032C9.20064 21.9032 9.63064 22.2832 10.1306 22.2832H13.8606C14.3606 22.2832 14.7906 21.9032 14.8506 21.4032L15.1406 19.0932C15.5506 18.9032 15.9406 18.6732 16.3106 18.4132L18.4606 19.3232C18.9206 19.5232 19.4606 19.3432 19.7106 18.9032L21.5806 15.6732C21.8306 15.2332 21.7206 14.6832 21.3206 14.3732L19.4606 12.9632C19.4906 12.7332 19.5006 12.5132 19.5006 12.2832ZM12.0406 15.7832C10.1106 15.7832 8.54064 14.2132 8.54064 12.2832C8.54064 10.3532 10.1106 8.7832 12.0406 8.7832C13.9706 8.7832 15.5406 10.3532 15.5406 12.2832C15.5406 14.2132 13.9706 15.7832 12.0406 15.7832Z" fill="#00687A"/>
</svg>
